<svg viewBox="0 0 310 126" fill="none" xmlns="http://www.w3.org/2000/svg" class="NavbarLogo__StyledSvg-sc-1dazgjg-0 krObjK"><path d="M201.981 80.9133C192.05 70.9829 192.05 54.8824 201.981 44.9519L228.952 17.9808C238.882 8.05035 254.983 8.05036 264.913 17.9808L291.884 44.9519C301.815 54.8824 301.815 70.9829 291.884 80.9133L264.913 107.884C254.983 117.815 238.882 117.815 228.952 107.884L201.981 80.9133Z" fill="#8739FA" class="NavbarLogo__StyledPurplePath-sc-1dazgjg-3 hWkWeQ"></path><path d="M5.94844 74.0312V55.0312H0.898438V49.0312H5.94844V45.7812C5.94844 42.8145 6.84844 40.4812 8.64844 38.7812C10.4484 37.0812 12.7318 36.2312 15.4984 36.2312C17.1984 36.2312 18.6484 36.4145 19.8484 36.7812V42.8312C19.0484 42.5312 18.1151 42.3812 17.0484 42.3812C15.5484 42.3812 14.4651 42.7145 13.7984 43.3812C13.1318 44.0145 12.7984 45.0979 12.7984 46.6312V49.0312H19.8484V55.0312H12.7984V74.0312H5.94844Z" fill="white"></path><path d="M23.9039 74.0312V49.0312H30.7539V53.0312C31.1872 51.7979 31.9706 50.7812 33.1039 49.9812C34.2706 49.1479 35.5539 48.7312 36.9539 48.7312C37.8206 48.7312 38.5872 48.8312 39.2539 49.0312V55.9812C38.1539 55.6145 37.1206 55.4312 36.1539 55.4312C34.5206 55.4312 33.2039 56.0312 32.2039 57.2312C31.2372 58.3979 30.7539 60.0145 30.7539 62.0812V74.0312H23.9039Z" fill="white"></path><path d="M63.5516 70.8312C60.9849 73.3312 57.8849 74.5812 54.2516 74.5812C50.6182 74.5812 47.5182 73.3312 44.9516 70.8312C42.3849 68.2979 41.1016 65.1979 41.1016 61.5312C41.1016 57.8979 42.3849 54.8145 44.9516 52.2812C47.5182 49.7479 50.6182 48.4812 54.2516 48.4812C57.8849 48.4812 60.9849 49.7479 63.5516 52.2812C66.1182 54.8145 67.4016 57.8979 67.4016 61.5312C67.4016 65.1979 66.1182 68.2979 63.5516 70.8312ZM54.2516 68.1812C56.0182 68.1812 57.4849 67.5645 58.6516 66.3312C59.8516 65.0645 60.4516 63.4645 60.4516 61.5312C60.4516 59.5979 59.8516 58.0145 58.6516 56.7812C57.4849 55.5145 56.0182 54.8812 54.2516 54.8812C52.4516 54.8812 50.9516 55.5145 49.7516 56.7812C48.5849 58.0145 48.0016 59.5979 48.0016 61.5312C48.0016 63.4645 48.5849 65.0645 49.7516 66.3312C50.9516 67.5645 52.4516 68.1812 54.2516 68.1812Z" fill="white"></path><path d="M72.3414 74.0312V49.0312H79.1914V51.8812C80.7247 49.6145 83.1081 48.4812 86.3414 48.4812C89.3414 48.4812 91.6914 49.4812 93.3914 51.4812C95.1247 53.4479 95.9914 56.0812 95.9914 59.3812V74.0312H89.1414V60.5312C89.1414 58.6979 88.7581 57.2812 87.9914 56.2812C87.2247 55.2479 86.1414 54.7312 84.7414 54.7312C83.0747 54.7312 81.7247 55.3312 80.6914 56.5312C79.6914 57.7312 79.1914 59.4979 79.1914 61.8312V74.0312H72.3414Z" fill="white"></path><path d="M114.08 74.3312C111.28 74.3312 108.98 73.5645 107.18 72.0312C105.413 70.4645 104.53 68.2145 104.53 65.2812V55.0312H99.4801V49.0312H104.53V42.0812H111.38V49.0312H118.43V55.0312H111.38V63.9312C111.38 65.4645 111.713 66.5645 112.38 67.2312C113.047 67.8645 114.13 68.1812 115.63 68.1812C116.697 68.1812 117.63 68.0312 118.43 67.7312V73.7812C117.23 74.1479 115.78 74.3312 114.08 74.3312Z" fill="white"></path><path d="M134.476 74.5812C130.643 74.5812 127.493 73.3479 125.026 70.8812C122.593 68.4145 121.376 65.2812 121.376 61.4812C121.376 57.7479 122.61 54.6479 125.076 52.1812C127.576 49.7145 130.726 48.4812 134.526 48.4812C138.36 48.4812 141.543 49.7979 144.076 52.4312C146.61 55.0312 147.776 58.5979 147.576 63.1312H128.076C128.209 64.6979 128.86 66.0145 130.026 67.0812C131.193 68.1145 132.793 68.6312 134.826 68.6312C136.06 68.6312 137.143 68.3979 138.076 67.9312C139.043 67.4312 139.726 66.7479 140.126 65.8812H147.276C146.543 68.4479 145.01 70.5479 142.676 72.1812C140.343 73.7812 137.61 74.5812 134.476 74.5812ZM134.326 54.0312C132.76 54.0312 131.443 54.4479 130.376 55.2812C129.343 56.0812 128.659 57.1979 128.326 58.6312H140.076C139.71 57.0645 138.976 55.9145 137.876 55.1812C136.81 54.4145 135.626 54.0312 134.326 54.0312Z" fill="white"></path><path d="M152.566 74.0312V49.0312H159.416V51.8812C160.949 49.6145 163.333 48.4812 166.566 48.4812C169.566 48.4812 171.916 49.4812 173.616 51.4812C175.349 53.4479 176.216 56.0812 176.216 59.3812V74.0312H169.366V60.5312C169.366 58.6979 168.983 57.2812 168.216 56.2812C167.449 55.2479 166.366 54.7312 164.966 54.7312C163.299 54.7312 161.949 55.3312 160.916 56.5312C159.916 57.7312 159.416 59.4979 159.416 61.8312V74.0312H152.566Z" fill="white"></path><path d="M192.648 74.5812C189.348 74.5812 186.564 73.2979 184.298 70.7312C182.031 68.1645 180.898 65.0979 180.898 61.5312C180.898 57.9645 182.031 54.8979 184.298 52.3312C186.564 49.7645 189.348 48.4812 192.648 48.4812C194.248 48.4812 195.681 48.8145 196.948 49.4812C198.214 50.1479 199.181 50.9312 199.848 51.8312V36.5312H206.698V74.0312H199.848V71.2312C199.181 72.1312 198.214 72.9145 196.948 73.5812C195.681 74.2479 194.248 74.5812 192.648 74.5812ZM189.498 66.4312C190.664 67.6979 192.198 68.3312 194.098 68.3312C195.998 68.3312 197.514 67.6979 198.648 66.4312C199.814 65.1645 200.398 63.5312 200.398 61.5312C200.398 59.5312 199.814 57.8979 198.648 56.6312C197.514 55.3645 195.998 54.7312 194.098 54.7312C192.198 54.7312 190.664 55.3645 189.498 56.6312C188.364 57.8979 187.798 59.5312 187.798 61.5312C187.798 63.5312 188.364 65.1645 189.498 66.4312Z" fill="white"></path><path d="M220.607 49.0312V75.9312C220.607 78.8645 219.724 81.0979 217.957 82.6312C216.19 84.1979 213.974 84.9812 211.307 84.9812C210.107 84.9812 209.174 84.9145 208.507 84.7812V78.9312C208.974 78.9979 209.407 79.0312 209.807 79.0312C212.44 79.0312 213.757 77.6312 213.757 74.8312V49.0312H220.607ZM217.157 44.9312C215.99 44.9312 214.974 44.5145 214.107 43.6812C213.24 42.8145 212.807 41.7812 212.807 40.5812C212.807 39.3812 213.24 38.3645 214.107 37.5312C214.974 36.6645 215.99 36.2312 217.157 36.2312C218.39 36.2312 219.424 36.6645 220.257 37.5312C221.124 38.3645 221.557 39.3812 221.557 40.5812C221.557 41.7812 221.124 42.8145 220.257 43.6812C219.424 44.5145 218.39 44.9312 217.157 44.9312Z" fill="white"></path><path d="M248.024 70.8312C245.458 73.3312 242.358 74.5812 238.724 74.5812C235.091 74.5812 231.991 73.3312 229.424 70.8312C226.858 68.2979 225.574 65.1979 225.574 61.5312C225.574 57.8979 226.858 54.8145 229.424 52.2812C231.991 49.7479 235.091 48.4812 238.724 48.4812C242.358 48.4812 245.458 49.7479 248.024 52.2812C250.591 54.8145 251.874 57.8979 251.874 61.5312C251.874 65.1979 250.591 68.2979 248.024 70.8312ZM238.724 68.1812C240.491 68.1812 241.958 67.5645 243.124 66.3312C244.324 65.0645 244.924 63.4645 244.924 61.5312C244.924 59.5979 244.324 58.0145 243.124 56.7812C241.958 55.5145 240.491 54.8812 238.724 54.8812C236.924 54.8812 235.424 55.5145 234.224 56.7812C233.058 58.0145 232.474 59.5979 232.474 61.5312C232.474 63.4645 233.058 65.0645 234.224 66.3312C235.424 67.5645 236.924 68.1812 238.724 68.1812Z" fill="white"></path><path d="M268.314 74.5812C264.481 74.5812 261.331 73.3479 258.864 70.8812C256.431 68.4145 255.214 65.2812 255.214 61.4812C255.214 57.7479 256.447 54.6479 258.914 52.1812C261.414 49.7145 264.564 48.4812 268.364 48.4812C272.197 48.4812 275.381 49.7979 277.914 52.4312C280.447 55.0312 281.614 58.5979 281.414 63.1312H261.914C262.047 64.6979 262.697 66.0145 263.864 67.0812C265.031 68.1145 266.631 68.6312 268.664 68.6312C269.897 68.6312 270.981 68.3979 271.914 67.9312C272.881 67.4312 273.564 66.7479 273.964 65.8812H281.114C280.381 68.4479 278.847 70.5479 276.514 72.1812C274.181 73.7812 271.447 74.5812 268.314 74.5812ZM268.164 54.0312C266.597 54.0312 265.281 54.4479 264.214 55.2812C263.181 56.0812 262.497 57.1979 262.164 58.6312H273.914C273.547 57.0645 272.814 55.9145 271.714 55.1812C270.647 54.4145 269.464 54.0312 268.164 54.0312Z" fill="white"></path></svg>