<svg width="318" height="318" viewBox="0 0 318 318" fill="none" xmlns="http://www.w3.org/2000/svg" class="AboutImage__StyledOutlineSvg-sc-1d73krd-4 idohwf"><g clip-path="url(#clip0)"><mask id="mask0" mask-type="alpha" maskUnits="userSpaceOnUse" x="5" y="-93" width="326" height="420"><path d="M52.6968 108.559C22.8532 144.5 9.80906 191.815 21.9516 229.224C37.5888 277.168 95.1845 308.699 152.863 310.101C210.762 311.292 268.743 282.355 290.012 231.003C301.341 203.369 301.978 169.244 293.163 138.415L317.81 -60.1063L77.3443 -89.9615L52.6968 108.559Z" class="AboutImage__StyledOutlinePath-sc-1d73krd-5 jwCYZv"></path></mask><g mask="url(#mask0)"><path fill-rule="evenodd" clip-rule="evenodd" d="M148.833 10.0214C149.48 9.83285 150.155 9.76088 150.826 9.80885L174.657 11.511C175.08 11.5413 175.498 11.6189 175.904 11.7424L197.724 18.3832C198.982 17.7258 200.453 17.5582 201.845 17.9378L208.087 19.64C208.855 19.8495 209.57 20.2184 210.187 20.7226L216.428 25.8291C216.574 25.9485 216.714 26.0751 216.847 26.2084L223.341 32.7023L229.222 36.9796C229.335 37.0613 229.444 37.1472 229.55 37.2369L236.926 43.4782C237.352 43.8383 237.722 44.2592 238.025 44.7272L244.266 54.3729C244.86 55.2911 245.176 56.3615 245.176 57.4552V84.1226C245.176 84.5729 245.123 85.0217 245.017 85.4594L240.477 104.183C240.409 104.464 240.32 104.74 240.21 105.007L236.665 113.615V116.694L237.198 116.923C238.688 117.561 239.833 118.806 240.346 120.343L242.616 127.152C242.897 127.997 242.976 128.897 242.845 129.778L240.576 145.097C240.433 146.064 240.042 146.978 239.442 147.749L235.752 152.493L233.261 157.061V159.586C233.261 161.09 232.663 162.533 231.599 163.598L218.509 176.688V194.764C218.509 194.99 218.495 195.215 218.468 195.44L216.918 208.361L217.52 210.167L220.697 211.932C221.245 212.237 221.739 212.63 222.159 213.096L227.265 218.77C227.729 219.286 228.095 219.882 228.344 220.529L231.033 227.52L235.937 236.238C236.089 236.508 236.218 236.79 236.324 237.081L238.101 241.967L251.773 254.062C252.99 255.139 253.687 256.686 253.687 258.311V312.781C253.687 314.293 253.084 315.742 252.011 316.808C250.938 317.873 249.484 318.466 247.972 318.455L92.5068 317.32C90.9933 317.309 89.547 316.694 88.4894 315.611C87.4318 314.528 86.8506 313.068 86.875 311.555L87.4424 276.376C87.453 275.722 87.5766 275.075 87.8078 274.463L97.0873 249.899V248.768L90.0108 245.23C89.4166 244.933 88.8793 244.534 88.4232 244.051L78.7776 233.838C78.1798 233.205 77.7356 232.443 77.4796 231.611L75.21 224.234C75.1068 223.899 75.035 223.555 74.9954 223.206L72.2098 198.693L68.3606 184.946C68.2211 184.448 68.1504 183.933 68.1504 183.416V174.899L65.991 164.103C65.9178 163.736 65.8809 163.363 65.8809 162.99V144.266C65.8809 143.953 65.9067 143.641 65.9581 143.333L68.2276 129.716C68.2916 129.332 68.3951 128.955 68.5362 128.592L71.6848 120.496L68.5778 112.95C68.2956 112.265 68.1504 111.531 68.1504 110.79V105.116C68.1504 103.742 68.6493 102.414 69.5543 101.38L72.1222 98.445V87.5269C72.1222 86.9567 72.2081 86.3898 72.3771 85.8452L77.2287 70.2124V59.1574C77.2287 58.2037 77.4691 57.2654 77.9276 56.4292L87.5733 38.8401C87.9985 38.0647 88.599 37.3995 89.3269 36.8975L105.781 25.5497C106.025 25.3818 106.281 25.2333 106.547 25.1053L120.732 18.2966C121.011 18.1626 121.301 18.0516 121.599 17.9649L148.833 10.0214ZM203.143 30.0541C201.8 30.8128 200.195 30.997 198.7 30.5421L173.211 22.7845L151.033 21.2004L125.223 28.7284L111.858 35.1435L96.8765 45.4756L88.5765 60.611V71.0726C88.5765 71.6428 88.4905 72.2098 88.3215 72.7543L83.47 88.3871V100.577C83.47 101.951 82.9711 103.279 82.0661 104.313L79.4982 107.248V109.667L83.0426 118.275C83.5977 119.623 83.6126 121.133 83.0842 122.492L79.3247 132.159L77.2287 144.736V162.428L79.388 173.225C79.4613 173.591 79.4982 173.964 79.4982 174.338V182.637L83.2598 196.071C83.3414 196.362 83.3995 196.659 83.4337 196.96L86.2111 221.401L87.9363 227.008L95.9838 235.529L105.299 240.187C107.221 241.148 108.435 243.112 108.435 245.261V250.935C108.435 251.62 108.311 252.3 108.069 252.941L98.7728 277.548L98.3137 306.014L242.339 307.065V260.868L229.502 249.511C228.793 248.884 228.252 248.09 227.929 247.2L225.818 241.396L220.94 232.724C220.805 232.484 220.688 232.235 220.589 231.979L218.129 225.582L214.358 221.392L210.079 219.015C208.839 218.325 207.901 217.196 207.452 215.849L205.75 210.743C205.485 209.948 205.4 209.104 205.499 208.272L207.161 194.424V174.338C207.161 172.833 207.759 171.39 208.823 170.326L221.913 157.235V155.614C221.913 154.664 222.151 153.73 222.606 152.897L226.01 146.656C226.157 146.387 226.325 146.131 226.513 145.889L229.569 141.96L231.422 129.455L230.386 126.349L228.756 125.651C226.67 124.757 225.318 122.705 225.318 120.436V112.492C225.318 111.751 225.463 111.017 225.745 110.332L229.551 101.088L233.828 83.4446V59.1308L228.954 51.5979L222.379 46.0344L216.306 41.6179C216.067 41.4436 215.841 41.2508 215.632 41.0412L209.023 34.4326L203.936 30.2702L203.143 30.0541Z" fill="#A86DFE" class="AboutImage__StyledOutlinePath-sc-1d73krd-5 jwCYZv"></path></g></g><defs><clipPath id="clip0"><rect width="318" height="318" fill="white"></rect></clipPath></defs></svg>